/* XPM */
static char *_a59b3881831449ff8618bcabcfdf34c[] = {
/* columns rows colors chars-per-pixel */
"64 64 73 1 ",
"  c #756F5E",
". c #76705F",
"X c #7C735E",
"o c #676766",
"O c #686764",
"+ c #6B6964",
"@ c #6B6B6B",
"# c #726D61",
"$ c #767060",
"% c #797260",
"& c #737373",
"* c #787877",
"= c #7B7B7B",
"- c #8D7E57",
"; c #81775C",
": c #867A5A",
"> c #8B7C59",
", c #907F57",
"< c #807F7F",
"1 c #9F894E",
"2 c #938156",
"3 c #9B8654",
"4 c #9E8853",
"5 c #928158",
"6 c #A68E4F",
"7 c #AE924E",
"8 c #B3954E",
"9 c #BC9B4B",
"0 c #A28B52",
"q c #AA8F51",
"w c #AC9251",
"e c #C29E49",
"r c #CDA547",
"t c #C6A149",
"y c #CAA349",
"u c #D0A746",
"i c #D5AA45",
"p c #DAAD44",
"a c #DEB043",
"s c #E4B442",
"d c #E9B741",
"f c #EDBA41",
"g c #F2BD41",
"h c #F2BF4A",
"j c #F2C04E",
"k c #F2C254",
"l c #F4CA6A",
"z c #F4CD72",
"x c #F4CF7B",
"c c #848484",
"v c #888887",
"b c #8C8C8B",
"n c #949494",
"m c #9B9B9B",
"M c #A4A4A4",
"N c #ACACAB",
"B c #B0B0AF",
"V c #B5B4B4",
"C c #B8B8B7",
"Z c #BBBBBB",
"A c #C5C5C5",
"S c #C8C8C7",
"D c #CCCCCC",
"F c #D3D3D3",
"G c #DCDCDC",
"H c #E0DFDF",
"J c #F8ECCD",
"K c #E4E4E4",
"L c #EBEBEB",
"P c #F3F3F3",
"I c #F9F7F2",
"U c #F9F8F3",
"Y c #FCFCFC",
/* pixels */
"ggggggggggggggggggggggggggggggggfX@7ggggggggfggggggggggggggggggg",
"ggggggggggggggggggggggdjggggggggsO=o3fgggggg8ggggggggggggggggggg",
"ggggggggggggggggsau85#+dgggggggg+&Ymo#igggfeO3gggggggggggggggggg",
"ggggggggggggg8-Oooooo@o3ggggggg5OKYYFooO46+o&oeggggggggggggggggg",
"gggggggggggg-OOO=MFPUUFOgggggguoBYYYYPMooooMY<Odgggggggggggggggg",
"gggggggggggeOVLPYYYYYYGoggggggOvYYYYYYYPLLPYYU*+fggggggggggggggg",
"ggggggggggd+vYYYYYYYYY&:gggggX+PYYYYYYYYYYYYYYLo:ggggggggggggggg",
"gggggggggf#*UYYYYYYYYCOpggggg @IYYYYYYYYYYYYYYYFo0gggggggggggggg",
"ggggggggg3oGYYYYYYYYHo2ggggggdovYYYYYYYYYYYYYYYYNoeggggggggggggg",
"ggggggggtoCYYYYYYYYPo.ggggggggp@MYYYYYYYYYYYYYYYYcosgggggggggggg",
"gggggggsobYYYYYYYYYvOdggggggggg0oDYYYYYYYYYYYYYYYY&Ofggggggggggg",
"ggggggg @YYYYYYYYYUOpgggggggggggXoPYYYYYYYYYYYYYYYLo-ggggggggggg",
"gggggg5oLYYYYYYYYYY@+,#9ggggggggg+oYYYYYYYYYYYYYYYYFoqgggggggggg",
"gggggtoCYYYYYYYYYYYLoooo4ggggggggsO=YYYYYYYYYYYYYYYYMorggggggggg",
"ggggdObYYYYYYYYYYYYYDFUMouggggggggtONYYYYYYYYYYYYYYYY*+fgggggggg",
"gggf &UYYYYYYYYYYYYYYYYU=Ofgggggggg0oFYYYYYYYYYYYYYYUU&%gggggggg",
"ggg3oGYYYYYYYYYYYYYYYYYYU@$ggggggggg>oLYYYYYYYYYYYYYYYGo3ggggggg",
"ggtoZYYYYYYYYYYYYYYYYYYYYDouggggggggf+=YYYYYYYYYYYYYYYYCo9gggggg",
"gdObYYYYYYYYYYGYYYYYYYYYYLOtgggggggggfonYYYYYYYYYYYYYYYYnopggggg",
"f9oUYYYYYYYYPboFYYYYYYYYYPO3fgggggggggtoVYYYYYYYYYYYYYYYY@@fgggg",
"d3bYYYYYYYYL@O+oYYYYYYYYYYFo1gggggggggg>oLYYYYYYYYYYYYYYUPo%gggg",
"f7@YYYYYYYYY@:foYYYYYYYYYYYno#;sfgggggg4ooPYYYYYYYYYYYYYYYGo4ggg",
"jsoMYYYYLYYYS+fOYYYYYYYYYYYYD=@o;eggggiono*YYYYYYYYYYYYYYYYCo9gg",
"gg6oFYA&oYYYYosoLYYYYYYYYYYYYYKZ@o,fgg@@YSomYYYYYYYYYYYYYYYYc@sg",
"ggg:OOO OVYYY<>X@PYYYYYYYYYYYYYYYNo fXoPYYMoAYYYYYYYYYYYYYYL@,gg",
"gggf2:3g5&YYYNodobYUYYYYYYYYYYYYYYHoOoZYYYYcoKYYYYYYYYYYYYU&#ggg",
"gggggggggoLYYDogpoBKLYYYYYYYYYYYYYYPooYYYYYY&oPYYYYYYYYYYYmopggg",
"ggggggggg+mYYGogg0oo@UYYYYYYYYYYYYYYFoSYYYYY<ocYYYYYYYYYYGo7gggg",
"ggggggggg2cYYGoggg+OobYYYYYYYYYYYYYYY<oPYYYmoaomYYYYYYYYYo>gghgg",
"ggggggggg>mYYNogggggyOLYYYYYYYYYYYYYYY@@YYFo3gwoAYYYYYYY*+fggggg",
"ggggggggg3*YYO7gggggg>&YYYYYYYYYYYYYYYLovY@ogggXoPYYYYYmopgggggg",
"gggggggggtoM&OgggggggioUYYYYYYYYYYYYYYYSo*ofgggh#oYYYYFowggggggg",
"gggggggggg,oouggggggggoDYYYYYYYYYYYYYYYYno0gggggiobYYP@;gggggggg",
"gggggggggggfggggggggggoAYYYYYYYYYYYYYYUYY&ogggggge@ZY*+ggggggggg",
"ggggggggggggggggggggggoZYYYYYYYYYYYYYAPYYY@+gggggg0omorggggggggg",
"gggggghgggggggggggggggONYYYYYYYYYYYYL&LYYYDo4gggggg+o1gggggggggg",
"ggggggggggggggggggggggoBYYYYYYYYYYYYmP&YYYYnosggggggXggggggggggg",
"ggggggggggggggggggggggoZYYYYYYYYYYYnVLPHYYYYcofggggggggggggggggg",
"ggggggggggggggggggggggoAYYYYYYYYYYYFB&YYYYYYL@%ggggggggggggggggg",
"ggggggggggggggggggggggoGYYYYYYYYYY&M@LPYYYYYYGo3ggggggggghgggggg",
"gggggggggggggggggggggpoYYYYYYYYYYNNKFLYYYYYYYYVotggggggggggggggg",
"ggggggggggggggggggggg0@YYYYYYYYYYLA<YYYYYYYYYYYvodgggggggggggggg",
"ggggggggggggggggggggg0&YYYYYYYYYMYMYYYYYYYYYYYYY&ogggggggggggggg",
"ggggggggggggggggggggge@YYYYYYYYYAG*YYYYYYYYYYYYYLo8ggggggggggggg",
"gggggggggggggggggggggfoPYYYYjYzxIFLYYYYYYYYYYYYYYnXggggggggggggg",
"gggggggggggggggggggggioVYYYYgUlzUYYYYYYYYYYYYYYYYSOggggggggggggg",
"ggggggggggggggggggggf+ooYYYYgYlzIYYYYYYYYYYYYYYYY=:ggggggggggggg",
"gggggggggggggggggggg:oP&=YYYgUzzIYYYYYYYYYYYYYYYDOeggggggggggggg",
"ggggggggggggggggggg8oFYFoNYYgJUkUYYYYYYYYYYYYYYP@:gggggggggggggg",
"ggggggggggggggggggpomYYYMoHYhhjhUYYYYYYYYYYYYYP@#ggggggggggggggg",
"gggggggggggggggggfo*YYYYY*@IYYYYYYYYYYYYYYYYYYmopggggggggggggggg",
"ggggggggggggggggg>oLYYYYYYovYYYYYYYYYYYYYYYYYFoegggggggggggggggg",
"ggggggggggggggggeoGYYYYYYHooCYYYYYYYYYYYYYYYKo,ggggggggggggggggg",
"gggggggggggggggsomYYYYYYP@.:oLYYYYYYYYYYYYYY&ofggggggggggggggggg",
"gggggggggggggggX@PYYYYYYcodgO*YYYYYYYYYYYYYvosgggggggggggggggggg",
"gggggggggggggg2oLYYYYYYVoyggpomYYYYYYYYYYYCoeggggggggggggggggggg",
"ggggggggggggguOZYYYYYYKo0gggg7oFYYYYYYYYYHo,gggggggggggggggggggg",
"gggggggggggggs@bYYYYYPo%gggggg;oPYYYYYYYP@$ggggggggggggghggggggg",
"ggggggggggggggtOCYYYYbodggggggf+<YYYYYYYvodggggggggggggggggggggg",
"ggggggggggggggg4oFYYAouggggggggioZYYYYYNopgggggggggggggggggggggg",
"ggggggggggggggggO@ULo4gggggggggg6oLYYYGo0ggggggggggggggggggggggg",
"ggggggggggggggggf+&&+fggggggggggf &UYY@ gggggggggggggggggggggggg",
"gggggggggggggggggpo+shgggggggggggsocB*+dgggggggggggggggggggggggg",
"gggggggggggggggggg9eggggggggggggggtOoOuggggggggggggggggggggggggg"
};
