/* XPM */
static char *_d9161ddfdc34b57c54be88f5e9c85c4[] = {
/* columns rows colors chars-per-pixel */
"64 64 256 2 ",
"   c #040004",
".  c #0B0102",
"X  c #06000C",
"o  c #0C010B",
"O  c #120102",
"+  c #1C0000",
"@  c #17030D",
"#  c #050214",
"$  c #0B0213",
"%  c #0D0718",
"&  c #150A17",
"*  c #19161F",
"=  c #280000",
"-  c #360000",
";  c #28180C",
":  c #171023",
">  c #231927",
",  c #352A36",
"<  c #2F2831",
"1  c #430508",
"2  c #4B1610",
"3  c #681319",
"4  c #791714",
"5  c #4A2814",
"6  c #6A3218",
"7  c #4D3730",
"8  c #7D2C29",
"9  c #723634",
"0  c #73431B",
"q  c #7B623A",
"w  c #574B54",
"e  c #746D76",
"r  c #8A1D0B",
"t  c #981B1B",
"y  c #921F0C",
"u  c #A01E1C",
"i  c #8B220B",
"p  c #9A220F",
"a  c #892A18",
"s  c #952514",
"d  c #9D2414",
"f  c #982819",
"g  c #943A1E",
"h  c #8B351E",
"j  c #A52B1B",
"k  c #A5251B",
"l  c #B9281D",
"z  c #A6351C",
"x  c #8C2E2E",
"c  c #8C2425",
"v  c #952521",
"b  c #9D2A25",
"n  c #982829",
"m  c #983729",
"M  c #8C2D32",
"N  c #992731",
"B  c #873838",
"V  c #9B3235",
"C  c #993535",
"Z  c #8B3923",
"A  c #AD2B23",
"S  c #A52E29",
"D  c #AC2E2B",
"F  c #A72725",
"G  c #BD2423",
"H  c #B62C26",
"J  c #BD2B24",
"K  c #B52D2B",
"L  c #BE2C2B",
"P  c #B8272A",
"I  c #AC302C",
"U  c #A63626",
"Y  c #BA3024",
"T  c #B2322D",
"R  c #BB312D",
"E  c #B83728",
"W  c #AE2C33",
"Q  c #A42B32",
"!  c #BC2E34",
"~  c #B52D35",
"^  c #AA3339",
"/  c #BB3131",
"(  c #BD3B34",
")  c #B3353C",
"_  c #BB333B",
"`  c #B33636",
"'  c #C1291F",
"]  c #C31F20",
"[  c #C32524",
"{  c #CA2626",
"}  c #C52C26",
"|  c #C92A27",
" . c #C4262A",
".. c #CB262B",
"X. c #C52B2A",
"o. c #C92A2A",
"O. c #D02C2D",
"+. c #D2242C",
"@. c #C3322C",
"#. c #CA312C",
"$. c #C33328",
"%. c #C52531",
"&. c #C52C32",
"*. c #CB2C32",
"=. c #CA2A37",
"-. c #D32B32",
";. c #C43233",
":. c #CC3333",
">. c #CC333B",
",. c #C63A38",
"<. c #D33237",
"1. c #D2302D",
"2. c #8A5232",
"3. c #A54B31",
"4. c #B9563D",
"5. c #B34A32",
"6. c #91693A",
"7. c #BB613F",
"8. c #B53743",
"9. c #C73643",
"0. c #954B49",
"q. c #975954",
"w. c #884A4B",
"e. c #B35845",
"r. c #A75D42",
"t. c #926A48",
"y. c #846858",
"u. c #976B5B",
"i. c #B4654A",
"p. c #AA7A4B",
"a. c #BB754A",
"s. c #B86D51",
"d. c #A77C56",
"f. c #B87757",
"g. c #A66C5E",
"h. c #847B7A",
"j. c #95776E",
"k. c #AE666A",
"l. c #A57B6B",
"z. c #C35B49",
"x. c #C76E51",
"c. c #C87A5A",
"v. c #DA745B",
"b. c #CC6C4F",
"n. c #AC8655",
"m. c #B48558",
"M. c #B08A56",
"N. c #9A836B",
"B. c #BB986B",
"V. c #A38A7D",
"C. c #BB897A",
"Z. c #B58F60",
"A. c #C3825A",
"S. c #D98869",
"D. c #C8996B",
"F. c #D38777",
"G. c #DA9272",
"H. c #D19872",
"J. c #EB8567",
"K. c #E89E76",
"L. c #F79B77",
"P. c #EC976C",
"I. c #CAA375",
"U. c #D7A879",
"Y. c #EDA36F",
"T. c #E8A175",
"R. c #F4A473",
"E. c #FBA373",
"W. c #FEA37C",
"Q. c #FCAC7B",
"!. c #F6A679",
"~. c #FCB07D",
"^. c #F3A26D",
"/. c #787580",
"(. c #908A8E",
"). c #A38D89",
"_. c #B98683",
"`. c #B99B83",
"'. c #B7AD98",
"]. c #9C91A1",
"[. c #A69FA7",
"{. c #B5B6B6",
"}. c #A9A1AC",
"|. c #C69A96",
" X c #D6AB83",
".X c #C9A59A",
"XX c #D8B797",
"oX c #DBAB93",
"OX c #E9A785",
"+X c #F7AA82",
"@X c #FDAB85",
"#X c #FEAC8B",
"$X c #FBA687",
"%X c #E7B789",
"&X c #FDB58E",
"*X c #FDBC8E",
"=X c #F9B585",
"-X c #E8BE99",
";X c #FEBE92",
":X c #F9B796",
">X c #F1A993",
",X c #CBACA7",
"<X c #FCBCA0",
"1X c #E4B9B4",
"2X c #F4C58D",
"3X c #FDC38D",
"4X c #F6CB8D",
"5X c #FBC98E",
"6X c #EAC493",
"7X c #F5C494",
"8X c #FDC593",
"9X c #F5CA94",
"0X c #FDCA94",
"qX c #F5C599",
"wX c #FDC59B",
"eX c #F5CB9B",
"rX c #FDCB9B",
"tX c #FDD19E",
"yX c #FED095",
"uX c #E9C18E",
"iX c #DBC8AF",
"pX c #EBC9A3",
"aX c #FEC5A3",
"sX c #F5CEA1",
"dX c #FECDA3",
"fX c #F8C8AB",
"gX c #FED2A3",
"hX c #FFD4AB",
"jX c #FBD6AA",
"kX c #FCD4B8",
"lX c #FFCFB7",
"zX c #CEBCCA",
"xX c #C9C9CA",
"cX c #D7C7CD",
"vX c #DAD3DA",
"bX c #CEC2D0",
"nX c #E2CCC7",
"mX c #F7C9C9",
"MX c #FDDBD9",
"NX c #F0D9CC",
"BX c #F3E3DD",
"VX c #E4DDE4",
"CX c #EAE6E7",
"ZX c #FDE5E4",
"AX c #FBEEEA",
"SX c #FEF5EE",
"DX c #F8F6EC",
"FX c #EFE8F3",
"GX c #FEEEF3",
"HX c #F4E9F9",
"JX c #FEF4F4",
"KX c #FEFBF5",
"LX c #F5F4FC",
"PX c #FEF5FD",
"IX c #FEFBFD",
"UX c #F2F4F4",
/* pixels */
"v b I R @.X.X.o.X.X.} } } X.o.} | X.| X.X.| X.X.| X.X.| X.X.| X.X.| X.X.| X.| X.| X.X.| X.X.| X.| | | @.} } } X.o.o.X.&./ I b v ",
"b S T R &.X.o.o.| } } } } } | o.X.X.X.X.X.X.X.X.X.X.X.X.X.X.X.X.X.X.X.X.X.X.X.X.X.X.X.X.X.X.X.X.| | } } } } } X.o.} X.@./ T S b ",
"D T / @.&.X.o.| o.} } } } X.X.o.| X.X.| X.X.X.| | X.X.X.X.| | X.X.X.X.| X.X.X.| | X.X.| | X.X.X.| | X.X.} } X.X.o.o. .&.@.R T D ",
"/ / L &.o.o...| o.X.} } } X.X.| X.X.X.X.X.| X.X.X.X.X.| X.X.X.X.X.| X.X.X.X.| @.X.X.X.X.X.X.| X.X.X.X.X.} X.X.X.o.{ ..o.&.! R / ",
"L &.&.o.........&.} @.L } X. .X.X.X.| X.} o.X.} X.X.@.| X.X.| X.X.X.X.X.| X.X.| X.X.| X.X.X.X.X.&.X.X.X.@. .X.X...| .... .&.@.L ",
"X. .o.o...*...o.X.}  .} @.X.X.X.X.X.X.X.X.X.X.o.| X.| X.X.X.X.X.X.| X.| X.X.X.X.X.X.X.X.X.| X.| o.X.X.X.L } } X.O...O.....o.X. .",
"X.X.o.....O.| | } } L X.X.X.X...X.| o.X.X.X.X.X.X.X.| X.| X.X.X.X.| X.X.X.X.X.X.X.| | X.X.| } X.o.X.X.X.@.X.X. .} o.......o.o.o.",
"o.o.o.o.....| X.} } &.X.X.&.X.o.X.X.} X.X.| } o.X.X.X.X.X.X.| X.X.X.X.X.| X.X.| X.X.X.X.X.X.X.X.o.X.X.X.X.L } @.X.| o.o.o.o.o.o.",
"| | X.&.X.X.} } @.X.X.X.X.o.o.o.#.X.X.X.X.X.X.X.X.X.X.X.X.X.X.X.X.X.X.X.X.X.| X.X.X.X.X.| X.X.o.o.o.o.X.X.@.@.&.X.X.X.X.| X.o.} ",
"} } } } X. .@. .! X.X.X.X.%...o.| X.X.X.} o.X.} | X.| X.X.| X.X.X.| | X.X.} X.X.| X.X.| } X.X.o.o...o.o.X.}  .L X.} } X.X.X.} } ",
"X.} } } } } ! X. .X.X.X.o.o...o.| X.X.X.X.o.} o.X.X.| X.X.| X.| X.X.X.X.X.o.X.X.X.X.X.X.o.X.X.| o...o.o.X.X.X.X.} L }  .} } } X.",
"} } } } L @.X.X.@.X.X.X.o.o.o.o.| X.| X.X.X.X.X.X.X.X.X.X.X.X.X.X.| X.X.X.} o.X.X.X.| X.} X.X.o.o.o.o. .X.X.X.X.@.X.@.L $.} } } ",
"} } X.X.X.X.@.X.X.o.| o.} | | | X.X.X.X.| X.} X.| X.X.| o.X.} X.X.| X.X.o.X.o.} | X.X.X.o.X.X.X.X.| | | } o.o.X.&.} X.X.} } } X.",
"o.} X.X.X.X.X.X.o.o.o.o.| } } } | X.X.| X.X.| X.X.X.X.X.X.} X.| X.X.X.X.X.} X.X.X.X.X.X.X.X.o.} } } } | o.o...X.X.X.X.X. .} X.X.",
"| } | X.o.X.X.X.o.o...| | } } } X.X.X.X.X.X.X.X.X.| X.X.X.X.o.} X.X.X.X.o.} o.} | X.X.o.X.o.X.} } } } ..X...o...X.X.X.X.X.| } | ",
"| | X.X...%...*...o.| | } } } } } | X.X.X.X.X.X.X.X.&.| o.| } X.#.o.o.X.} } X.o.#.X. .X.X.} X.X.} } } | ....*.X.o.o.o.o.X.X.| | ",
"..X.@.X...+.-.%.&.&.[ | $.J #.' #.$.} | } X.J } L %.X.o...| } | =.=.| } $.} | ....=.<.&.X.&.;.@.} } | [ ..| L ;.&...| { | } | | ",
"| X.R } ..+.-.%.X.X. .o.X.Y l | ' } | $.G $.X.@.X.=.*. .{ | } X.%.=...} ' J ,._ ~ t n v b S D / ( P X.O.{ X.&.L &.o.{ | | $.} | ",
"#.X. .X.o.o.X. .O.{ ....[ @.X.o.1.X.[ } O...] *.......*. .o.o.X.X. .} 1.:.A n 8 w._.|.|._.u.B Q ` P #.[ | | X.X.X.X.X.} | o.| o.",
"X.X.X.X.| } J Y [ -...%.%.&.*. .G o...{ | O.{ { ......X.X.&.o.o.} @.J P b x _.NXJXIXKXIXKXAXmXk.c ) L X.} |  .#.X.X.L  .| o.o.o.",
"X.X.#.| } } Y } } *.*.%.9.9.%.9.>.=...-.{ [ :.[ | | | | } L } } J l ( a q.ZXAXIXPXLXLXIXbXw h.ZXmX8 W  .O.' X.X.X.*.X.o.o.| X.@.",
"&.o...[ J Y $.E ( t b n N c N N W ! %...O.[ ' $.$.| | | J } } } } ,.n 0.SXIXKXUXLXIXCX/.& & VXIXPX1XV ! | 1.} } X.o.%.o.o.X.@.L ",
"......} J R R I 8 q.oXMXMX|.|.l.B N 9...{ 1.Y Y } ' | | @.X.X.o...~ x mXGXGXPXPXIXvX> X $ o w vXUXnX9 ^ } | { | &.X...X.} }  .} ",
"+.O.o. .@./ W x C.SXIXDXLX{.DXKX1X8 Q >.[ $.E E E Y J } R / ;.&...~ 0.JXPXPXPXGXGX< X & $ # X % *   - V } { | } L &.o.X.&. .@.} ",
"{ } X.@.&.! N B PXPXIXPXxX{.KXSXKX.Xx 8.` I a a h Z m m v c Q ~ >.W q.JXPXLXPXPX{.o o $ % $ % # # @ 1 V P O.} X.L L  .o.#.X.{ { ",
"O.[ @.&.! _ 3 1 cXPXFX].* xXUXKXVXSXk.x c C c.OX:X:X<X<X>XF.e.v u b q.AXIXLXLXIX}.  & X $ $ # # # & - ^ >. .G @.! &.X.o.o.| | ..",
"$.[ &. .=.8.- O % , : $ X (.IXFXCXAX|.3 F.fXdXwXrX0X8X9XyXtXrX;Xf.0 2 nXIXLXLXPXHX> X % $ % $ % & + 4 9.X.X.@.L &.X.....| } | | ",
"[ X.X. .>.) = O $ # $ : X [.KXCXxXCX).j.kXfXdXeX3X0X0X5X4X4X5X5XtXtX2.y.KXIXLXPXIXzX, & O . . . O - V ~ ;.&.} &. .X.X.| | | } } ",
"J #.{ o.&.W 1 O o $ $ $ > FXN.  < e e ; ; 5 q 6XrX0X8X5X0X5X8X0X*XdXhXI.N.iXKXUXIXJX{.j.7 7 9 7 5 6 c f A Y @.| *.| } } | | } L ",
"@.X.{ O.X._ 8 = + @ $ % {.IXCX(., o O O O + + D.dXeX9XrX0X3X8X8X8X*XqXhXXXN.'.NX'.N.`.XXiXjXfXkX<X>Xc.x.U j k @.&.| } } } | @.@.",
"@. .| | X.;.) 3 = X , bXIXIXJXBXnXy.XXC.m.f.U.wX9X9X0XyXrX8X8XrXrX8XrX7XgXjXn.t. XfXsXeXyX9XdX:XrX8X@X@XW.J.U y D Y } | } X.%...",
"P #...{ O.G ! ) 3 9 MXIXnX).).V.u.N.hX>X=X+X;X8X0X0X4X9X0X8XwX8XrX7XyX5X9X7XjXjXdXqXtX4X4X9X2XtX5X5X=X^.E.Q.#Xb.f A X.| X.#.%...",
"X.&.| | | | o.! ) m 0.g.j.-XpXjXpXt.aXK.OX&X*XrX0X9X0X9X8X3X8X0X5X0X5X0X3X8XwXwXwXwX-XeXhXjXfXdX8X0X*XQ.E.^.E.#XJ.f R X.o.X.} } ",
"X.X.} } | } | X.T ` n a aXdX6XeXeX6.U.8X&XrXrX2X9X4X5X5X8XrX0X3X5X0X0X0X8XrXrXrXgX6Xf.0 6 6.D.%X8X8X3XE.^.E.E.^.#X4.u @.*.X.G $.",
"*. .} $.} } | X.&.;.~ U :XaX9X9XrX%Xp.tX3X;X0X3X5X5X4X4X5X5X8X8X8X9X9X9XtXyX-XU.Z.n.m.D.H.A.a.a.m.G.~.E.E.E.Y.!.L.z.A &.{ O.O.[ ",
"o.o.} } } } } } %.X.! u z.aXrXeXqXqXD.p.tXrX0X3X5X0XyX0X9X9X8XrXrX7XrXtXuXM.n.M.U.2XtXrX3X~.@X!.Y.P.^.E.E.L.!.R.$XI A =...| | } ",
"o.o.X.} } } } }  .<.%.:.d 4.:XgXtXeXjXD.6.6XeXrX8X8XrXeXqXqXqX9XrXgX%Xp.p.D.eXgXgX0X5X0X3XY.^.R.R.Q.W.L.W.W.E.@Xv.s R &.*.+.o.{ ",
"o.o.o.| } } } $.*. ... .H f g c.>XrXdXhXI.6.U.gXdXrXrXwXdXgXjXsX XZ.f.I.7XtX9X9X7X5X5X0X=XY.R.E.!.L.#X$XL.L.J.4.s F >.X.....| [ ",
"| o.| | | } }  . . .=.<.} R j s g 3.f.aXgXeXd.m.T.%X;XaX6X XB.n.m.U.wXrX8XrXrX9X9X0X0X0X~.^.E.E.$XL.v.5.j d d p Y /  . .*.X.X.@.",
"X.| | | | } X.@.L *.X.P &.} $.$.H E 4 s.lXqXsXU.Z.m.m.d.d.Z.I.%XgXrX8XeX8XrX8X9X8X8X3X0XQ.R.E.Q.b.U s j l Y $.$.@.J *. ...o.@.J ",
"} } X.X.X.| o.X.X.@.L @.X.X.{ ..} &.E i G.hX7XtXgXtX9X9XrXrXrX0X9X5X5X8X0X8X8X8X8X;XrX*XK.@X!.i.i z E @.$.J J } X.X...%.o.X.} R ",
"} } } } } | ....X.X.@.L &.X.+...{ } l Y i c.dX7X9X4X9XyX3X*X3X5X5X9XyX0X0X8X8X8X8XaX&X&X:Xv.h s T R @.J } X.}  .X.X.X...o.&.L } ",
"} L } } X.| | +.....} X. .@.....X.@.:.$.E y r.rXrXqX7X8XrX0X0XrX0X5X2X2X9XrXyX0X8XdX<XS.3.s k R $.&.X.} &.X.X.} X.X.X.o.o.X.X.X.",
"} } Y @.$.| ..{ { ..o.X.} } X.X. .L L  .[ ,.r 3.OXwXgXwX2X7X8X8X5X9X0X0X0XrXrXtXwX#Xe.r f ( ;.&.[ { ..#.| X.X.} X.X.X.X.X.o.X.o.",
"} X. .@.&.X.......| | } } X.X.X.&.X.*.O.*.X.P F s e.H.:XdXhXhXdXhXrXwXaXwX&XG.x.3.s d ( @. .+.+...| O.|  .X.X.&.} } } } o.o.o.o.",
"X.} &.&.X.X.o.o.o.o.| | } X.X.X.&. .X.&.o.[ <.L K j h Z 2.r.s.f.s.s.i.3.g f s f A Y Y J o.-.-.{ O.| ..| o.X.X.X.} } X.| X.o.o.o.",
"X.X.......X.X.} $.} } | | | X.X.X.} } } @.} [ #.#.&.R R P k u k u k F A K K @.;.Y @.Y L #.J G #.X.J [ X.#.X.| { o.| } } X.X.X.X.",
"| o.......o.&.L X.} } | | | X.| } } @.} J } O.} ........X.*.:.:.<.&.&.#.*.#. . .X.} X.} G } @.} $.} } } X.X.o...| | | | } X.X.X.",
"| | o.{ X.X.X.o.o.X.o.o.} } } } } } } } } X.X.| | o.o.| X.| &.| X.&.| X.X.&.X.X.X.X.} X.X.X.X.} } } } } o.o.....o.X.X.} X.o.| | ",
"| | X.X.X.} &. .o...o.o.| } } | X.| o.X.| X.X.| &.} X.X.X.X.} X.} X.X.X.X.X.| X.| X.| X.X.| X.} } } } | o...o.o.o.X.X.&.X.o.| } ",
"X.} }  .}  .&. .o.o.o...| } } | X.X.X.X.X.X.| X.X.X.X.X.| X.X.| | X.X.X.| X.| X.X.X.X.X.X.X.X.| } } } | o.o.o. .X.X.X.X.X.X.} | ",
"} } } } }  .X.X.X.o.X.o.| | | | X.X.| X.X.X.X.X.| X.| } X.X.X.X.X.X.| X.X.X.X.X.X.X.X.| X.X.} &.| o.| | X.o.o.X.X.X.X. .} X.X.} ",
"} } } J L } X.@.X.X.X.X.o.{ o.o.X.X.X.X.X.| X.X.X.X.| X.X.X.X.X.X.X.X.X.X.X.X.X.| X.X.| X.| X.| o.o.o.o.o.X.X.&.X.@.$.} } } } } ",
"X.} } }  .J L @.X.X.X.X.X.o.{ o.o.X.X.| X.X.X.| X.X.X.X.| X.X.| | X.X.| | X.| X.X.X.X.X.X.X.X.| o.| o.X.X.X.L X.L L } X.} } } } ",
"} } X.} X. .} } &.X.X.X.X.o.o.o.#.X.X.X.X.X.X.X.| X.X.X.X.| X.X.X.X.X.X.X.X.X.X.X.X.X.X.| X.&.| ....o.o.X.} @.X.X.X.X.X.X.X.} $.",
"| | } ..X.} } } X.L &.X.X.o.o.o.| X.| X.X.| X.X.X.X.| X.X.X.X.X.X.X.| X.X.| X.X.| X.X.| } X.X.| o.o.o.X.X. .@.X. .X.X.X.X.| }  .",
"o.o.o. ...| X.X.@. .L X.X.X.X.X.X.X.| X.X.| X.| | X.X.| X.| X.X.| X.| X.X.| X.X.X.| X.X.| X.X.| o.%.X.X.X.X.} X.X.X.O.| o.o.o.| ",
"o.X.....{ { o.|  .} X.X.X.&.X.o.X.X.X.X.X.X.X.X.X.X.X.X.X.X.X.| X.X.X.X.X.X.X.X.X.X.X.X.X.X.X.X.o.X.X.@.L X.@.X.o.o.......| #.| ",
"X.X.X.........o.X.} $.L X.X.%.X.@.| X.X.X.X.X.X.X.X.X.X.X.X.X.X.X.X.X.X.X.| | X.| X.X.| X.X.X.X.X.X. .} @.L X.X.o.| ..O...X. .X.",
"! X.X.X.....{ ..X.X.} @.X.X.X.X.| X.X.| X.| X.| | X.X.| @.| X.| | X.X.| X.X.X.X.X.X.X.X.| X.X.| &.X.@.} }  .X.X.o.......o.&.&.L ",
"~ R @.X. .....| X.} } $.X.X.X.X.X.| X.X.X.X.X.X.X.X.| X.X.| X.X.X.X.X.X.X.@.| X.X.} X.} o.} o.X...X.X.X.} } } X.X..... .&.L / R ",
"I T / ! X.[  .o.|  .} } X. .| | X.| X.X.X.X.| X.X.X.X.X.X.X.X.X.X.X.| X.X.| X.X.X.o.o.X.X.X.X.} o.X.} X.} } } X.o...X.X.@./ T I ",
"b S T L @.%.X.o.| X.X.} } X.| X.&.} X.| | X.| X.X.| X.| | X.X.| | X.| X.| X.X.| } X.} X.X.} X.X.} | } } X.} } | o.X.X.@.R T Q b ",
"v b I K L X.o.| X.} } } | } | o.| X.X.X.X.X.X.X.X.X.X.X.X.X.X.X.X.X.X.X.X.X.X.X.X.o.X.X.o.X.o.X.| | o.} } } } } ..o.&.&.R D b v "
};
