/* XPM */
static char *_bd0d9e544c54c12a2d84d68f195e11f[] = {
/* columns rows colors chars-per-pixel */
"64 64 256 2 ",
"   c #0D1D00",
".  c #061B00",
"X  c #1D0B00",
"o  c #2D1700",
"O  c #0E2200",
"+  c #132500",
"@  c #152A01",
"#  c #1A2F04",
"$  c #163300",
"%  c #1A3202",
"&  c #1B3B01",
"*  c #163900",
"=  c #372608",
"-  c #213E02",
";  c #35320C",
":  c #3F3E22",
">  c #453807",
",  c #4B3816",
"<  c #573F20",
"1  c #1D4400",
"2  c #1B4B00",
"3  c #1E5300",
"4  c #224700",
"5  c #255400",
"6  c #2C5C00",
"7  c #275802",
"8  c #2C481D",
"9  c #39471B",
"0  c #325911",
"q  c #176600",
"w  c #147400",
"e  c #2A6700",
"r  c #336B03",
"t  c #297504",
"y  c #377703",
"u  c #347514",
"i  c #365929",
"p  c #335527",
"a  c #3A6832",
"s  c #484617",
"d  c #5C5619",
"f  c #534A10",
"g  c #665A18",
"h  c #65520E",
"j  c #427D0F",
"k  c #6C6418",
"l  c #746A14",
"z  c #484927",
"x  c #475627",
"c  c #555623",
"v  c #5B5B24",
"b  c #585927",
"n  c #56502C",
"m  c #655927",
"M  c #6D5531",
"N  c #59632A",
"B  c #45683A",
"V  c #586737",
"C  c #527237",
"Z  c #686628",
"A  c #756C2A",
"S  c #78752B",
"D  c #686835",
"F  c #776B36",
"G  c #7A7834",
"H  c #687234",
"J  c #3E7245",
"K  c #6D5B43",
"L  c #457548",
"P  c #50714E",
"I  c #697849",
"U  c #787845",
"Y  c #676D50",
"T  c #657A66",
"R  c #7A7E63",
"E  c #877A29",
"W  c #857A37",
"Q  c #8A7432",
"!  c #84781C",
"~  c #8B774C",
"^  c #887962",
"/  c #39880A",
"(  c #268A18",
")  c #348A11",
"_  c #35932B",
"`  c #299A29",
"'  c #458506",
"]  c #468A15",
"[  c #499618",
"{  c #509418",
"}  c #4C932D",
"|  c #728E32",
" . c #56A729",
".. c #4AA835",
"X. c #58A836",
"o. c #5AB639",
"O. c #4CAA2E",
"+. c #63B13A",
"@. c #55A41F",
"#. c #39A04A",
"$. c #4B8557",
"%. c #529052",
"&. c #748851",
"*. c #5ABA47",
"=. c #58A757",
"-. c #59B957",
";. c #4DAA4E",
":. c #66B747",
">. c #66BB58",
",. c #6BB053",
"<. c #599869",
"1. c #518F68",
"2. c #708D72",
"3. c #5AA877",
"4. c #57B774",
"5. c #52B16A",
"6. c #67B967",
"7. c #66A877",
"8. c #65B97A",
"9. c #71AD72",
"0. c #5EC052",
"q. c #68C259",
"w. c #6AC24F",
"e. c #59C275",
"r. c #6AC369",
"t. c #74C569",
"y. c #68C678",
"u. c #78C977",
"i. c #7CD17E",
"p. c #89832A",
"a. c #948A2A",
"s. c #9B932D",
"d. c #8A8434",
"f. c #8C843B",
"g. c #888737",
"h. c #938C33",
"j. c #968939",
"k. c #9C9434",
"l. c #9A9737",
"z. c #8D933E",
"x. c #A39A34",
"c. c #A69A38",
"v. c #A89932",
"b. c #ABA434",
"n. c #A9A539",
"m. c #B3AB3B",
"M. c #B6A937",
"N. c #BCB335",
"B. c #B9B537",
"V. c #B5AF2E",
"C. c #958F29",
"Z. c #C4BD34",
"A. c #C5B838",
"S. c #C6BD2E",
"D. c #CDC42D",
"F. c #C9C334",
"G. c #D2CA2E",
"H. c #888846",
"J. c #968847",
"K. c #8B9645",
"L. c #999544",
"P. c #8A8B56",
"I. c #899658",
"U. c #959556",
"Y. c #9A8759",
"T. c #A59C44",
"R. c #A88C51",
"E. c #99A24D",
"W. c #A9A644",
"Q. c #B6AA44",
"!. c #B9B645",
"~. c #B2AE4F",
"^. c #8D9269",
"/. c #AA946E",
"(. c #92A671",
"). c #B2A86C",
"_. c #C4B744",
"`. c #C6B953",
"'. c #C1A77D",
"]. c #83CB77",
"[. c #BFC040",
"{. c #CCC546",
"}. c #7C9887",
"|. c #5AB889",
" X c #68BA83",
".X c #78B887",
"XX c #77B18E",
"oX c #5D9E80",
"OX c #69C589",
"+X c #77C989",
"@X c #7AD28B",
"#X c #69C896",
"$X c #77C995",
"%X c #7DD294",
"&X c #79D29A",
"*X c #6FD293",
"=X c #75CDA3",
"-X c #5CC491",
";X c #8AAA86",
":X c #97B997",
">X c #8EB38F",
",X c #AEB38A",
"<X c #98BAA7",
"1X c #91A996",
"2X c #CBB79A",
"3X c #84CA8C",
"4X c #88CC99",
"5X c #98C39A",
"6X c #87D59A",
"7X c #93D59B",
"8X c #8BD08A",
"9X c #ACC599",
"0X c #98C8A5",
"qX c #89D7A8",
"wX c #98D7A6",
"eX c #97D9B6",
"rX c #88D1A9",
"tX c #A6C9A7",
"yX c #A9D6AB",
"uX c #AACCB5",
"iX c #A8D8B7",
"pX c #B6D9B7",
"aX c #B6CCAB",
"sX c #ACE1BC",
"dX c #B7E1BC",
"fX c #9AE1B7",
"gX c #CBD4B5",
"hX c #E8D3AD",
"jX c #A8DDC5",
"kX c #B7DDC4",
"lX c #ABE3C9",
"zX c #B8E4C9",
"xX c #B9E7D4",
"cX c #A7E5D0",
"vX c #9DDEC2",
"bX c #C5DCC6",
"nX c #C7E9D6",
"mX c #D6EAD8",
"MX c #D0E6CD",
"NX c #E8EFD8",
"BX c #D6EEE1",
"VX c #DBF2E4",
"CX c #D8F3E8",
"ZX c #CBF0E1",
"AX c #E4F4EA",
"SX c #EAF5ED",
"DX c #E5F4E8",
"FX c #EBF6F1",
"GX c #EDF9F3",
"HX c #E5F8F1",
"JX c #F1F7F2",
"KX c #F3FAF5",
"LX c #F6FCF9",
"PX c #F9FDF9",
"IX c #F8FDF7",
"UX c #E8F2E4",
/* pixels */
"UXJXKXJXKXIXIXIXIXJXJXJXLXGXGXGXIXJXIXJXJXJXJXJXJXFXJXLXKXJXJXJXKXJXKXJXJXFXFXFXJXJXJXJXJXJXJXJXJXJXJXJXGXSXAXSXSXJXGXSXAXVXDXVX",
"VXUXIXIXPXPXPXPXIXIXPXPXPXPXPXPXPXPXPXPXPXIXLXLXPXPXPXPXIXPXIXIXIXIXLXPXLXLXPXLXLXLXLXPXLXLXPXPXIXKXPXKXLXLXLXLXKXKXKXGXFXBXzXdX",
"NXUXIXIXPXPXPXPXPXIXPXPXLXLXPXLXPXPXPXPXIXPXPXLXPXLXPXLXLXPXLXLXPXPXIXLXPXLXLXLXLXJXJXJXIXPXKXIXIXKXKXLXLXGXKXKXKXKXKXGXSXBXdX5X",
"yXVXJXIXPXPXPXPXPXPXPXPXPXPXPXLXPXPXPXLXIXPXPXLXKXLXLXLXLXKXLXKXIXKXGXGXLXLXLXLXJXFXJXFXJXKXJXJXGXKXHXHXGXKXGXKXFXHXGXAXCXnXwX.X",
"8.rXDXKXKXIXPXPXPXPXLXLXLXLXLXGXLXKXGXLXLXKXKXJXKXJXKXJXJXKXFXGXGXJXKXJXFXAXSXSXFXFXFXFXFXFXFXFXSXSXAXAXAXVXAXVXVXHXAXZXZXsX+X,.",
"#.4.iXVXGXGXKXLXJXJXJXJXLXFXGXHXKXSXFXHXHXHXSXGXSXSXUXNXNXNXNXNXmXMXNXUXVXUXUXAXAXBXBXBXCXBXCXBXCXnXBXBXBXCXCXBXBXZXnXxXvX+X,._ ",
"#.=.0XkXnXHXGXKXJXKXJXFXFXFXFXFXFXFXAXAXCXCXCXVXmXNXgX,XU.I.H.H.P.U.P.^.,X2XbXnXnXBXZXxXnXZXnXnXxXZXxXxXxXcXxXxXnXxXxXlX$X5.;.e ",
"_ 5.8.pXzXBXHXGXSXFXHXAXAXFXAXSXAXAXCXCXZXZXNXmXgX,XU.K.K.h.h.z.d.d.H.H.P.^.;X:XbXnXxXxXcXxXxXxXlXxXxXZXlXcXjXxXxXjXiXeX=X5._ w ",
"_ ;.].iXnXBXAXHXAXCXCXCXHXFXFXAXAXVXVXVXBXnXMXaXU.L.z.l.c.k.h.h.a.h.j.d.f.H.P.(.;XtXkXlXkXxXxXjXcXlXcXcXzXMXxXxXvXvXeX=XOX6.( w ",
"_ =.4XyXMXVXAXAXCXCXCXCXCXAXSXAXAXAXBXVXmXbX(.E.T.n.n.b.c.v.s.k.k.k.h.d.d.g.g.H.U.(.1XbXkXnXZXxXxXlXcXjXxXnXzXlXkXlXcX=X#X5.u w ",
"_ ;.OXeXzXBXVXVXCXBXZXCXBXAXAXBXCXBXBXmXMX(.E.~.B.B.m.m.n.c.x.k.x.k.k.h.z.h.g.f.H.P.;X1XbXMXnXbXnXlXcXxXzXzXuX(.^.,XiXrX=X;.( q ",
"` ;.8.4XjXBXNXgXaXmXBXZXBXAXBXBXBXBXBXbX,XE.!.!.!.m.M.n.b.b.x.v.k.k.C.h.j.L.L.U.U.U K ^ 9XbXMXMXxXjXkXzXiXiX(.&.V &.>XwX|.#._ w ",
"( ;.8.$XdXMX,XU.Y.P.MXmXAXUXAXmXBXmXzX9X).E.L.j.E.W.n.c.x.k.k.k.k.s.k.c.T.J.H.A n , ; z Y tXkXbXkXdXkXkXtX:XI.Z d P.&.9.3.,.} y ",
"( -.*X=XiXpXR.d.Q ~ 1XmXmXBXBXnXBXmXbX(.E.l k g k l p.h.c.c.s.s.v.b.m.Q.E h f f , s < z : 2.pXkXzXnXzXpXpX^.P.g h I.&.&.6.6.) q ",
"` #.4.-X0X(.L.Q S H.K gXbXBXnXxXxXkX9XI.A l l l l k k l ! Q._.M.N.N.Q.k.g f f Z S A Z D z V <XiXjXcXkXaX(.K.H.h f L.K.&.7.=.u q ",
"( #.5.-X0X^.J.E E W K Y gXbXBXnXzXyXI.z.h.W.Q.Q.T.W.L.E ! v.A.A.A.N._.p.S G g.H.z.g.G G D V 2.<XrX0X0X;X&.H.J.S Z U.U.U =.=.t w ",
"( #.4.$X5X(.j.! E Q F m R gXMXnXkX9XK.n.[.{.[.[.B.!.~.W.n.x.N.A.N.M.n.p.W | | g.| g.G G D V Y 1XtX0X^.&.~ W G F F I B P 1.=.u q ",
"( o.8.XX:XP.U.J.~ K m D U U ,XgXaX(.W.[.F.F.F.B.V.n.n.l.n.l.b.N.M.b.a.G S S S S G S S G A D D ^.2.Y &.H.U n z z z x P 1.#.#.] q ",
"( ..e..X:X}.Y n : : z K U U W U.U.E.!.B.Z.Z.B.b.x.C.a.h.p.C.x.M.M.k.E A Z Z Z A S E S S A N N Y z : c N K P P P P P $.1.1.#.u q ",
"( ..e.OX1X}.T T T Y Y T V U ~ d.h.n.N.Z.B.B.B.m.W.l.g.d.| C.s.n.v.j.A Z g m H.J.J.H.W F D b b Y N : : B T P P P T 1.1.oX=.#.u q ",
"( #.5.|.=X1X}.2.T T T T 2.Y U g.l.B.B.N.B.B.~.T.Q ~ W Q d.h.v.v.v.j.A h d W ~ m , n n m D m z D Y z B T T T 1.2.1.1.XX9.<.=.u e ",
"w ` 5.|.XX<X1X}.}.2.T T 2.2.H K.n.B.N.N.B.p.k W > = m g E j.k.n.c.k.A d A D ~ < o n Y., > v d m Y V T T 2.}.}.}.oXXX4X.X6.X.u q ",
"( ..y.$XuXuXuX<X<X1X}.}.2.2.R H.m.F.S.A.v.h hXY.= o K Q g j.k.Q.n.k.j.A E W /.= o , ^ m > g f.W F Y Y 2.}.;X1X>XXX=XrX.X6.%.t q ",
"( o.7.rXuXjXuXuX<X<X<X<X}.2.&.L.[.F.G.A.M.Q ).Q = , M Z j.k.v.v.v.s.a.j.d.~ Q W Q A Z g A L.L.L.H.I &.2.XX;X:XeX=X=X#X Xy._ u q ",
") O.5.&XqXjXdXkXiXuXuXtX1X;X&.E.{.G.G.G.A.M.v.j.Q Q l j.c.Q.M.M.v.v.s.j.Q W J.l.c.j.k.l.W.T.c.h.d.&.&.2.1XXXrXqX=X#XrX+Xy._ u e ",
"/ O.5.&XeXfXzXnXkXxXbXuX<X;XH.!.{.G.G.G.G.A.v.v.v.c.W.b.v._.Q.M.M.v.v.k.Q E d.j.T.W.m.m.n.c.k.d.d.&.I 7.:X4XrX=X=X=XrX7X6._ u 7 ",
"/ O.e.OXfXlXnXzXlXzXxXuXtX;X,.[.G.G.G.G.{.{.A.A._.m.b.M.M._._.M.b.v.v.v.f.A A A E T.n.n.b.x.k.j.d.g.I 2.>X0X0X$X-X-X=X$X-._ u e ",
"/ O.e.-XqXsXzXzXjXjXkXkXuX].E.{.G.G.D.D.{.{.{.N.b.v.m.Q.v.Q.Q.M.M.M.v.R.W d m Z d W T.x.c.T.l.j.d.G I &.>X0XwXwX=X=X=X=Xr...u 7 ",
"/ ..5.-XfXfXlXlXvXjXzXpXuX,XE.F.G.G.D.S.A.{.A.v.a.s.k.j.L.Q.Q.M.Q.c.c.H.F s 9 s s d g.h.g.g.g.g.G G H I >X>X0XwXwX4X#Xe.6.} u 5 ",
"/ _ 5.OXwXsXlXjXlXzXzXuX5X(.W.F.G.G.F.N.A.M.v.! E a.l > > h ! E E E A d > = = > c d Z Z d g S S S S N I .XXX7XtXwX7X-Xy.>.X.y 7 ",
"/ O.-.4XwXsXzXzXlXsXpXuX5X(.~.Z.F.F.B.V.k.! ! C.M.M.s.! l h h > > > > > ; ; > c d g A W Z g A p.G S Z I 2.XX4XrXwX4X$X+X,.} r 6 ",
"' [ >.+XwXsXdXkXkXzXjXyX:X(.~.Z.F.Z.V.C.l ! n._.A.M.M._._.Q.c.j.E k k k g m A S W W G S S d.g.z.g.S Z C 1. X$X X$XrX6X8XE.{ j 6 ",
"' | (.8XyXdXzXzXzXlXiXyX5XI.!.Z.S.S.v.l ! A.M.M.M.M.A.A.A.M.M.Q.Q.m.M.Q.Q.T.T.c.j.g.G Z Z W d.T.j.G Z C <.3.|.-X$XrX4X].,.@.r 7 ",
"' @.w.8XwXsXsXsXiXeX0X0X>X9.!.F.S.S.a.a.A.M.M.M.S.A.A.A.A.A.A.M.M.N.M._.Q.M.T.T.J.G N c f j.W c.W.p.Z C <.3.-X-X#X&X$Xu.,.{ r 5 ",
"' @.>.+X6XqXfXeXiXiXiXtX>X&.!.F.S.M.v.A.M.M.M.M.M.A.A.A.`.{._._._._.`.`.~.W.L.~ F n : = > W j.p.~.h.k C 1.3.|.#X-X*X+X6.-.] r 7 ",
"j @.r.e.=XqXfXvXzXdXpXtX:XI.!.S.S.S.S.A.M.v.Q v.v.v.R.M.M.R.v.R.v.j.j.! g f > > ; = = = M Q f.! W.l.S H $.3. X$XOX#X*Xy.:.) r 7 ",
"j { >.y.=XqXvXdXdXpXyX9X>XE.!.D.D.D.D.A.A.v.h = > , , , , , , , > = , = , < < : < , < M F g W S n.j.S V $.<..X3XOX*X&X6.X.) u 5 ",
"' { >.y.*XqXsXsXpXpXyX9X>XI.[.D.D.D.D.S.{.M.R.h ~ /.~ R./.K ~ /.^ K ^ ^ ^ ^ ^ K K M K ~ m d A S E.l.S N P 9.>X8X+X+XOX6.:.] r 5 ",
"y { ,.u.*XqXdXpXpXpXyX5X>XK.[.G.D.D.D.A.A.M.Q.Q Q '.'.'.hX^ hXNX2X/.hX2X^ K K K < M ~ Q d b m S l.z.A V %.9.>X>X$XOX+Xu.:.) 6 4 ",
"/ { ,.u.@XqXyXpXpXpXtX9X>X&.!.Z.A.D.D.D.A.M._.v.R.Q < o = = Y.~ K < n < o X X = M ~ Q g c c v A K.G v V %.7.XX3X+X+X+X>...) e 3 ",
"' { ,.].+X&XiXpXpXpXyX9X(.,.!.[.A.S.F.S.B.V.B.B.n.T.J.g < > o o o o < < < = < ~ R.Q m < v v v H G H N C $.<.8.+X8.@Xe.5...) q 3 ",
"y ' ,.].@XrXsXyXyXyX9X5X;XI.E.B.M.S.F.N.V.Z.V.B.B.n.~.).R.R.Q Y.K ~ './.R.~ R.R.M g d n c c m H H N b C <.3.3. XOX@Xe.-...( e 5 ",
"t / +.].4XwXfX7XpXyXtX4XXX&.K.W.N.N.A.N.B.Z.B.B.B.B.n.B.R.R.`.R.R.R.j.R.~ J.W Z m m v c b v v D N N N B %.3. XOXOXOXe.-.../ r 4 ",
"y [ :.].8XwXwX7XwXwXtX5XoX<.| K.M.N.V.N.V.B.Z.V.V.n.n.n.Q.Q.R.v.v.j.Q Q Q F Z v b c c c v v N N b N B P <.3.8.y.OXy.e.-. .] r 2 ",
"y [ +.u.7X7XyXwXqX7XwX5XXX2.P K.E.n.n.B.V.B.B.V.b.n.l.l.l.l.l.g.Q Q G G A Z b c c c c c v v N b N b J $.<.3.OXOX+Xy.r.>.X.' 6 1 ",
"y / +.t.7X7XwXyXwXqX4X5X>X9.%.H +.n.n.B.B.V.m.V.V.l.n.l.l.C.z.C.d.E S S Z v d c c c c b m b N b n i L $.<.8.8.OXOXy.6.>. .j 6 2 ",
"t ] ..r.8XwX7XqXqXwXqX$X.X7.<.P H K.n.V.m.V.B.V.n.n.s.l.l.l.h.g.d.S S S H Z N v c c c c b b b b i J P 1.5.4.e.e.y.r.>.*. ./ 6 2 ",
"t / X.0.@XwXwX6X&XrX&X$X.X.X7.P C C K.E.!.m.B.B.V.V.b.b.s.C.k.h.d.p.p.| E S S Z v v c c c b V i i J %.1.5.4.e.e.y.r.-.*.@.y 6 1 ",
"y ' X.q.8X6XwXwX6X6X%X6X4X3X7.2.P B V K.W.B.N.N.Z.N.V.V.m.b.b.b.l.s.l.k.k.z.h.d.G F N b b x x i J $.%.5.4.6.e.y.r.t.0.*.[ / 7 1 ",
"t / ..0.@X6X7XwXwX7X7X6X4X3XXX<.1.L a N K.W.m.N.A.A.Z.A.F.B.B.B.B.m.B.!.m.n.n.l.g.G Z b b x i a L %.<.6.6.r.r.r.r.r.0...[ ( 6 1 ",
"t / O.-.*X%XqX7XwXwX7X7X4X$X XoX<.$.J B N K.n.B.A.Z.Z.Z.F.B.N.A.B.B.B.B.B.n.n.z.G Z c c x p a L $.%.6.6.6.r.6.t.q.r.0.o.[ y 6 1 ",
"e ) O.-.y.*X%X6X7X6X7X7X$X+X*X|.oX1.1.L a c z.n.m.N.B.B.F.B.A.B.B.B.B.m.n.l.z.S Z c n z p a B %.=.,.6.t.t.t.q.t.q.q.*.O.[ y 6 1 ",
"e /  .*.y.*X6X6X6X6X4XqX6X@X#XOX.X X1.L J i z | T.n.b.b.n.b.b.n.x.l.l.l.z.g.S v c c i 9 i a %.=.,.6.6.>.t.q.q.q.0.0.*.o.@.y 5 1 ",
"e /  .*.y.*X6X6X8X6X6X%X6X*X$XOX+X.X<.<.P L i x H z.T.T.l.h.h.g.p.g.W | S Z c c x 9 8 i C %.%.=.=.6.>.q.t.q.q.0.0.*.o.o.[ y 5 * ",
"r y  .:.y.@X%X6X&X6X%X&X@X%X%X+X3X+X8.4.1.1.J i p x H | | G S H Z Z Z v v c c x 8 8 i B C %.=.-.-.-.0.q.w.w.>.w.0.*.o.@.' y 5 * ",
"e / @.:.i.%X6X@X%X%X@X$X@X6X%X%X3X3X8.8.3.<.$.L a p 8 9 z s 9 s 9 9 9 s 9 9 9 8 p p J } %.,.,.,.-.-.0.w.w.w.:.0.0.o.o. .[ y 4 1 ",
"r j { +.t.@X@X+X%X@X6X@X+X@X%X@X+X8Xu.u.9.7.<.%.$.a i p 8 8 8 8 8 8 8 8 8 8 p 0 a a _ %.=.:.,.:.*.0.w.w.w.:.:.*.o.o.o.@.{ r 4 & ",
"6 y { X.w.r.u.@Xu.i.u.u.u.r.r.t.].t.u.t.6.=.,.%.} J a a a p p p p p p p 8 i i a C L } } X.+.,.:.o.+.+.+.o.o.o.o.o.o.@.] j 6 1 & ",
"5 6 y ] [  .+.+.+.+.+.X.+.X.X.X.X. .| X. .} } } u u a u 0 0 0 0 7 0 0 0 0 0 e u u j j ] j { { { ] ] ] { ' ] ] ] ' ] y r 6 4 & @ ",
"; 4 7 7 e e r r r y r e e r r e e r r e 6 e 6 6 7 0 5 4 1 2 1 1 1 1 & 1 1 1 4 1 4 4 7 5 0 6 5 6 6 3 7 7 7 6 3 5 7 3 5 2 1 % +   ",
"& & 1 4 1 1 1 1 2 1 1 2 2 1 1 1 1 1 1 - & 1 1 & & 1 * % $ $ $ $ % $ # # $ $ $ $ % & & * & & & & * * * * & % * $ $ $ % % % # O   ",
"@ % - - 4 & - 4 - - - & - & - & - & & & & & % & % % % * # % # % % # % # # # # % # # # % % % % # % % % % % # % # % # # # # +     ",
"$ $ % % & % % & % % $ % % $ % % % $ % % @ % # @ # @ # @ @ @ @ @ @ + + + @ + @ @ @ @ @ @ @ @ @ @ + + + + + @ + + + + O + + O   . ",
"C + + @ + + + + @ @ + + + + O + O + + + + O + O O + O O O + + O   O   + +   + O                     O           O .       . . x "
};
